<svg id="Layer_1" data-name="Layer 1" xmlns="http://www.w3.org/2000/svg" viewBox="0 0 476.51 123.77"><defs><style>.cls-1{fill:#4f2d37;}.cls-2{fill:#a5ae51;}.cls-3{fill:#f8f8f9;}</style></defs><title>PD Logo Color Tag BG</title><rect class="cls-1" x="-0.14" y="-0.03" width="476.79" height="123.83"/><path class="cls-2" d="M44.53,85.23h-6.4v20.23H41V96.7h2.14a12.28,12.28,0,0,0,4.4-.62,5,5,0,0,0,2.41-2A5.6,5.6,0,0,0,50.86,91a5.36,5.36,0,0,0-1.72-4.19A6.59,6.59,0,0,0,44.53,85.23Zm2.39,8.06a4,4,0,0,1-2.72.83H41V87.81h3c2.56,0,3.84,1,3.84,3.11A3,3,0,0,1,46.92,93.29Z"/><path class="cls-2" d="M71.63,85a10.66,10.66,0,0,0-7.74,3,10,10,0,0,0-3.06,7.48,9.75,9.75,0,0,0,3,7.34,10.52,10.52,0,0,0,7.6,2.93,11.16,11.16,0,0,0,7.92-2.93,9.66,9.66,0,0,0,3.15-7.39,9.81,9.81,0,0,0-3.12-7.43A10.83,10.83,0,0,0,71.63,85Zm5.67,15.85a8.31,8.31,0,0,1-11.24,0,7.24,7.24,0,0,1-2.24-5.44,7.36,7.36,0,0,1,2.23-5.53,7.83,7.83,0,0,1,5.7-2.17,7.68,7.68,0,0,1,5.55,2.19,7.21,7.21,0,0,1,2.26,5.4A7.39,7.39,0,0,1,77.3,100.82Z"/><path class="cls-2" d="M107.65,86.5a14.44,14.44,0,0,0-6.52-1.24H94.32v20.17h6.39a28.3,28.3,0,0,0,3.64-.15,11.34,11.34,0,0,0,2.1-.6,9.78,9.78,0,0,0,3.42-2.19,9.68,9.68,0,0,0,2.23-3.25,9.84,9.84,0,0,0,.78-3.87,10.08,10.08,0,0,0-1.42-5.24A9.3,9.3,0,0,0,107.65,86.5Zm.1,14.19a7,7,0,0,1-1.47,1.12,8.06,8.06,0,0,1-2,.75,14.71,14.71,0,0,1-3.37.29h-3.7v-15h3.62a19.73,19.73,0,0,1,3,.16,7.49,7.49,0,0,1,2,.65,6.82,6.82,0,0,1,1.86,1.25,6.93,6.93,0,0,1,2.2,5.31A7.53,7.53,0,0,1,107.75,100.69Z"/><path class="cls-2" d="M128.88,100.89a7.74,7.74,0,0,1,0-11,8,8,0,0,1,5.76-2.19,13.9,13.9,0,0,1,6.92,2v-3.1A18.18,18.18,0,0,0,134.53,85a10.8,10.8,0,0,0-7.75,3,9.84,9.84,0,0,0-3.15,7.41,10.31,10.31,0,0,0,5.11,8.91,11.35,11.35,0,0,0,5.73,1.36,15.07,15.07,0,0,0,7.35-1.74v-3.18a13,13,0,0,1-7.17,2.26A8.07,8.07,0,0,1,128.88,100.89Z"/><path class="cls-2" d="M161.12,85.15l-8.67,20.31h3l2.52-6h8.62l2.69,6h3l-9.06-20.31Zm-2,11.75,3-7.31,3.26,7.31Z"/><path class="cls-2" d="M191.19,94.61,189,93.3a8.43,8.43,0,0,1-2.15-1.66,2.58,2.58,0,0,1-.67-1.7,2,2,0,0,1,.91-1.68,3.84,3.84,0,0,1,2.32-.65,6.71,6.71,0,0,1,4.7,2.09V86.42A8.19,8.19,0,0,0,189.45,85a6.2,6.2,0,0,0-4.3,1.49,5,5,0,0,0-1.65,3.88,4.73,4.73,0,0,0,.87,2.81,10,10,0,0,0,2.94,2.48l2.2,1.34q2.66,1.65,2.66,3.49a2.39,2.39,0,0,1-.9,1.9,3.45,3.45,0,0,1-2.27.75,6.82,6.82,0,0,1-5.42-3v3.67a8.94,8.94,0,0,0,5.45,1.84,6,6,0,0,0,4.23-1.52,5.17,5.17,0,0,0,1.63-4C194.89,98,193.65,96.08,191.19,94.61Z"/><polygon class="cls-2" points="205.37 87.81 212.29 87.81 212.29 105.46 215.2 105.46 215.2 87.81 222.24 87.81 222.24 85.23 205.37 85.23 205.37 87.81"/><polygon class="cls-2" points="261.62 100.92 248 85.23 245.66 85.23 245.66 105.43 248.38 105.43 248.38 89.88 261.88 105.43 264.36 105.43 264.36 85.23 261.62 85.23 261.62 100.92"/><polygon class="cls-2" points="281.38 96.58 289.64 96.58 289.64 93.99 281.38 93.99 281.38 87.84 289.93 87.84 289.93 85.26 278.49 85.26 278.49 105.43 290.21 105.43 290.21 102.85 281.38 102.85 281.38 96.58"/><polygon class="cls-2" points="301.73 87.81 308.66 87.81 308.66 105.46 311.56 105.46 311.56 87.81 318.6 87.81 318.6 85.23 301.73 85.23 301.73 87.81"/><polygon class="cls-2" points="345.02 96.95 341.55 85.26 338.81 85.26 335.37 96.95 331.96 85.26 329.05 85.26 335.03 105.54 335.65 105.54 340.17 89.12 344.61 105.54 345.25 105.54 351.25 85.26 348.37 85.26 345.02 96.95"/><path class="cls-2" d="M408.61,101.42a35.73,35.73,0,0,0-2.6-3.83,9.05,9.05,0,0,0-1.89-1.73,5.39,5.39,0,0,0,2.53-1.92,5.34,5.34,0,0,0,.88-3,5.09,5.09,0,0,0-1.8-4.11,7.32,7.32,0,0,0-4.87-1.52h-5.05v20.2h2.89V96.67h.75a4.67,4.67,0,0,1,2,.32,6.2,6.2,0,0,1,1.34,1.06,14.83,14.83,0,0,1,1.64,2l1,1.58.9,1.47.56.8a2.82,2.82,0,0,1,.17.25l.88,1.33h3.44L410.3,104C409.88,103.43,409.31,102.57,408.61,101.42Zm-5.8-7.7a8.18,8.18,0,0,1-3,.38H398.7V87.72h.86a10.4,10.4,0,0,1,3.05.32A2.68,2.68,0,0,1,404,89.13a3.08,3.08,0,0,1,.51,1.73,3.3,3.3,0,0,1-.46,1.72A2.81,2.81,0,0,1,402.81,93.72Z"/><polygon class="cls-2" points="432.72 85.26 424.22 94.5 424.22 85.26 421.33 85.26 421.33 105.46 424.22 105.46 424.22 95.48 432.72 105.46 436.33 105.46 427.57 94.85 436.33 85.26 432.72 85.26"/><path class="cls-2" d="M376.5,95.1c-.63-1.93-3.09-5.41-3.65-5.41s-3,3.47-3.65,5.41h0a4.71,4.71,0,0,0-.21,1.21,2.35,2.35,0,0,0,0,.26,3.91,3.91,0,1,0,7.75,0c0-.08,0-.17,0-.26A5.19,5.19,0,0,0,376.5,95.1Z"/><path class="cls-3" d="M124,69.46a32.19,32.19,0,0,0,12.42-2.67V57.08a19.76,19.76,0,0,1-9,2.48,6.33,6.33,0,0,1-4.81-1.83,6.94,6.94,0,0,1-1.74-5V35.17h15.54V26H120.89V17.4l-13.41,3.71V53.46q0,7.86,4.33,11.93T124,69.46Z"/><path class="cls-3" d="M159.34,56.46a12.21,12.21,0,0,1-3.52-9.12,11.62,11.62,0,0,1,3.61-9A13.61,13.61,0,0,1,169.05,35,23.86,23.86,0,0,1,180,37.88v-10a41.72,41.72,0,0,0-14.37-2.8q-10.53,0-17.33,6.31a20.93,20.93,0,0,0-6.8,16q0,10,6.74,16t18,6a42.63,42.63,0,0,0,14.41-2.85V57q-7.77,2.94-12,2.93A12.64,12.64,0,0,1,159.34,56.46Z"/><path class="cls-3" d="M216.9,25.09q-7.91,0-13.51,7.14h-.18V18.29l-13.42-3.7V68.64h13.42V47.49c0-9.73,15.9-15.38,15.9-3.23V68.64h13.42V41.42q0-7.7-4.41-12A15.35,15.35,0,0,0,216.9,25.09Z"/><path class="cls-3" d="M39.84,56V27.55c2.86-2.28,5.63-3.43,8.32-3.43a8.88,8.88,0,0,1,7.43,3.39Q58.23,30.9,58.23,37t-2.87,9.46A9.49,9.49,0,0,1,47.61,50a12,12,0,0,1-5.68-1.49h0A24.46,24.46,0,0,1,39.84,56a21.67,21.67,0,0,0,11,2.94q9.49,0,15.25-6.19t5.76-16.47a22,22,0,0,0-5.74-15.42A18.67,18.67,0,0,0,39.84,19.2L26.43,15.49V68.64H39.84Z"/><path class="cls-3" d="M287.31,27.8a24.76,24.76,0,0,0-11.12-2.71,19.49,19.49,0,0,0-14.88,6.2q-5.81,6.2-5.81,16,0,9.54,5.72,15.88a18.41,18.41,0,0,0,14.25,6.33,18.1,18.1,0,0,0,11.84-4.25l13.41,3.43V18.29l-13.41-3.7Zm0,29.14q-3.84,3.53-7.95,3.53a9,9,0,0,1-7.46-3.55q-2.81-3.54-2.8-9.42,0-6.37,2.82-9.89a9.55,9.55,0,0,1,7.89-3.53,13.19,13.19,0,0,1,7.5,2.49Z"/><path class="cls-3" d="M344.5,40.86,348.21,29c-3.47-2.59-6.44-3.68-8.9-3.89a17.33,17.33,0,0,0-13.78,4.61L312.11,26V68.64h13.42V48.31c0-7.22,5.76-10.61,11-10.61A12.46,12.46,0,0,1,344.5,40.86Z"/><path class="cls-3" d="M431.24,25.09a18.23,18.23,0,0,0-12.19,4.61L405.63,26V78.92h13.42V38.06q4.29-3.44,8.31-3.44A8.88,8.88,0,0,1,434.79,38q2.64,3.39,2.64,9.49T434.57,57a9.5,9.5,0,0,1-7.75,3.51A12,12,0,0,1,421.13,59h0a24.66,24.66,0,0,1-2.08,7.54,21.62,21.62,0,0,0,11,2.94q9.48,0,15.24-6.2T451,46.8a22,22,0,0,0-5.73-15.42A18.32,18.32,0,0,0,431.24,25.09Z"/><polygon class="cls-3" points="94.42 26 81 29.7 81 68.64 94.42 68.64 94.42 26"/><path class="cls-3" d="M363.85,51.78c.91,4.57,4.6,8,9,8a9.38,9.38,0,0,0,8.75-7,97.47,97.47,0,0,0,14.94-1,27.44,27.44,0,0,0,.37-4.45q0-10.48-7-16.37a25.5,25.5,0,0,0-17-5.88q-10.35,0-17.24,6.06t-6.89,16.1a24.58,24.58,0,0,0,.49,5A83.88,83.88,0,0,1,363.85,51.78Zm9,6c-3.49,0-6.4-2.81-7.07-6.54a8.88,8.88,0,0,1-.15-1.65c0-.16,0-.33,0-.5a9.23,9.23,0,0,1,.41-2.25h0a21.43,21.43,0,0,1,1.88-3.93c1.81-3.08,4.2-6.14,4.91-6.14,1,0,5.63,6.47,6.79,10.07a8.78,8.78,0,0,1,.41,2.25c0,.17,0,.34,0,.5C380.07,54.11,376.84,57.78,372.85,57.78Z"/><path class="cls-2" d="M381.6,52.79a9.38,9.38,0,0,1-8.75,7c-4.4,0-8.09-3.43-9-8a83.88,83.88,0,0,0-14.57.42,19.93,19.93,0,0,0,6.27,11.08,23.35,23.35,0,0,0,12.76,5.85l.12,0c1.57.23,2,2,.92,3.74h0a11.6,11.6,0,0,0-.82,1.83h0a6,6,0,0,0-.26,1.43c0,.11,0,.21,0,.32,0,2.87,2.05,5.2,4.59,5.2s4.59-2.33,4.59-5.2c0-.11,0-.21,0-.32a5.57,5.57,0,0,0-.26-1.43,10.75,10.75,0,0,0-.82-1.83h0c-1-1.74-.64-3.51.93-3.74l.11,0a25.22,25.22,0,0,0,12.43-5.46,18.79,18.79,0,0,0,6.72-11.88A97.47,97.47,0,0,1,381.6,52.79Z"/></svg>